<?xml version="1.0" encoding="utf-8"?>
<!-- Generator: Adobe Illustrator 27.2.0, SVG Export Plug-In . SVG Version: 6.00 Build 0)  -->
<svg version="1.1" id="Layer_1" xmlns="http://www.w3.org/2000/svg" xmlns:xlink="http://www.w3.org/1999/xlink" x="0px" y="0px"
	 viewBox="0 0 288.7 348.6" style="enable-background:new 0 0 288.7 348.6;" xml:space="preserve">
<style type="text/css">
	.st0{fill-rule:evenodd;clip-rule:evenodd;fill:#7DB444;}
	.st1{fill-rule:evenodd;clip-rule:evenodd;fill:#F7DC08;}
	.st2{fill-rule:evenodd;clip-rule:evenodd;fill:#1A8CD2;}
	.st3{fill-rule:evenodd;clip-rule:evenodd;fill:#D9ECF7;}
	.st4{fill-rule:evenodd;clip-rule:evenodd;fill:#F7FBFD;}
	.st5{fill-rule:evenodd;clip-rule:evenodd;fill:#F8FBFD;}
	.st6{fill-rule:evenodd;clip-rule:evenodd;fill:#7BBFE6;}
	.st7{fill-rule:evenodd;clip-rule:evenodd;fill:#86C2E7;}
	.st8{fill-rule:evenodd;clip-rule:evenodd;fill:#76BDE6;}
	.st9{fill-rule:evenodd;clip-rule:evenodd;fill:#80C1E7;}
	.st10{fill-rule:evenodd;clip-rule:evenodd;fill:#F8FCFD;}
	.st11{fill-rule:evenodd;clip-rule:evenodd;fill:#79BCE5;}
	.st12{opacity:1.800000e-02;fill-rule:evenodd;clip-rule:evenodd;fill:#FEFFFE;enable-background:new    ;}
	.st13{opacity:1.700000e-02;fill-rule:evenodd;clip-rule:evenodd;fill:#FEFFFE;enable-background:new    ;}
</style>
<g>
	<path class="st0" d="M119.5,0.2C157.7-1,187.9,2.6,207,5c31.9,3.9,58.8,9.6,79.5,14.7c2.9,37.8,2.9,75.8,0,113.9
		c-47.1-28.5-93.9-57.3-140.5-86.3c-23.6,14.7-47.4,29.4-71.5,44c-24.2,14.8-48.3,29.4-72.3,43.8c-1.2-18.2-2-37.4-2.2-57.5
		C-0.2,57,0.2,37.3,1.1,18.6C49.2,5.1,90.2,1.2,119.5,0.2z"/>
</g>
<g>
	<path class="st1" d="M144.9,65c47.8,29,95.4,58.5,142.7,88.5c-0.5,11.8-1.8,24.9-4.4,39.2c-3.6,20.4-9,38.1-14.4,52.6
		c-1.5,1.5-2.9,1.5-4.4,0c-34.8-58.3-85.7-81.2-152.7-68.6c-40,12-69.2,36.7-87.4,74.1c-7.8-16.2-16-38.1-19.9-64.8
		c-1.6-10.9-2.2-21.1-2.3-30.3C50.1,125.7,97.7,95.5,144.9,65z"/>
</g>
<g>
	<path class="st2" d="M146.1,186.1c11.6,0.4,35.7,2.9,60.7,18.4c30.7,19,44.2,45.9,48.7,56.4c-31.7,31.9-68.9,55.1-111.7,69.7
		c-41.7-14.4-78.2-36.9-109.5-67.5c4.8-11,16.1-32.7,39.8-50.7C103.5,189.9,134.2,186.7,146.1,186.1z"/>
</g>
<g>
	<path class="st3" d="M149.4,206.6c8,3.1,8.3,6.8,1.1,11.1c-2-2.7-4.6-4.5-7.7-5.5C145.9,211.3,148.1,209.5,149.4,206.6z"/>
</g>
<g>
	<path class="st4" d="M138.3,246.5c-0.3,1.6,0.1,3.1,1.1,4.4c8.9,7,17.3,14.4,25.4,22.1c3,18.1,0.8,19.2-6.6,3.3
		c-10.1-5.4-20.4-10.2-31-14.4c8.7,6.6,18.3,12.1,28.8,16.6c3.9,5,5,10.5,3.3,16.6c-1.1-4.5-3.7-7.5-7.7-8.9c2.5,3,2.5,6,0,8.9
		c-13.3-1.9-26.6-4.1-39.8-6.6c-2.2,0.4-3.7-0.4-4.4-2.2c-11.4-7.8-16.6-18.9-15.5-33.2c0.4-3.7,0.7-7.4,1.1-11.1
		c0.8,4.7,2.3,9.1,4.4,13.3c-4.2-20.7,2.5-36.9,19.9-48.7c0.7,0.7,1.5,1.5,2.2,2.2c11.6-8.3,24.5-11.7,38.7-10
		c-21.8,2.8-31.8,15-29.9,36.5C130.5,240.2,133.9,243.9,138.3,246.5z"/>
</g>
<g>
	<path class="st5" d="M171.5,290.7c-1.3-6.2-3.5-12.1-6.6-17.7c-5.8-9.8-13.5-17.9-23.2-24.3c-1.1-2.1-1.4-4.3-1.1-6.6
		c8.3-13.6,20.4-19.5,36.5-17.7c2.4,8.1,3.8,16.3,4.4,24.3c-1.5,1.9-3.4,3.4-5.5,4.4c-2.7-5.7-7.1-8.6-13.3-8.9
		c0.3,12.7,6.2,16.1,17.7,10c6-10.3,10.4-9.6,13.3,2.2c-1.1,9.3-2.6,18.5-4.4,27.7c-7.5,2.3-8.6,0.1-3.3-6.6
		c1.5-5.2,1.5-10.3,0-15.5C183.4,272.8,178.6,282.4,171.5,290.7z"/>
</g>
<g>
	<path class="st6" d="M127.2,262c-11.8-6.7-18.4-17-19.9-31c1.2-5.4,3-10.6,5.5-15.5c-1,8.7-1,17.6,0,26.6
		C116.6,249.5,121.4,256.2,127.2,262z"/>
</g>
<g>
	<path class="st7" d="M140.5,242c-0.3,2.3,0,4.5,1.1,6.6c9.7,6.4,17.5,14.5,23.2,24.3c-8.1-7.7-16.6-15.1-25.4-22.1
		c-1-1.3-1.4-2.8-1.1-4.4C137.9,244.3,138.7,242.8,140.5,242z"/>
</g>
<g>
	<path class="st8" d="M111.7,270.8c-6.2-1.4-9.6-5.1-10-11.1C105.6,263.1,108.9,266.8,111.7,270.8z"/>
</g>
<g>
	<path class="st9" d="M111.7,270.8c12.3,4.7,24.8,8.8,37.6,12.2c1.2,0.8,2,2,2.2,3.3C136.7,284.5,123.5,279.3,111.7,270.8z"/>
</g>
<g>
	<path class="st10" d="M107.3,286.3c0.8,1.9,2.2,2.6,4.4,2.2c13,4.6,26.3,8.2,39.8,11.1c-2.6,5.4-7.1,7.6-13.3,6.6
		c-14.6-0.9-26.4-7.1-35.4-18.8C104.2,286.4,105.7,286,107.3,286.3z"/>
</g>
<g>
	<path class="st11" d="M127.2,262c10.5,4.2,20.9,9,31,14.4c7.4,15.9,9.6,14.8,6.6-3.3c3.1,5.6,5.4,11.5,6.6,17.7
		c-1,2.1-2.5,4-4.4,5.5c-5.2,1-10.4,2.1-15.5,3.3c-13.6-2.8-26.8-6.5-39.8-11.1c13.2,2.5,26.5,4.7,39.8,6.6c2.5-2.9,2.5-5.8,0-8.9
		c4.1,1.4,6.6,4.3,7.7,8.9c1.7-6.1,0.6-11.6-3.3-16.6C145.5,274.1,136,268.5,127.2,262z"/>
</g>
<g>
	<path class="st12" d="M91.7,348.6L91.7,348.6c-2.6-11.7-2.2-9.6-4.7-21.2c4.1-1.8,7.6-1.3,10.7,1.3c-1.7,2-3.7,2.7-6,2.2V348.6z"/>
</g>
<g>
	<path class="st13" d="M122.7,348.6c-0.7,0-1.3,0-2,0c0-5.9,0-11.8,0-17.7c-3,0.6-5.6-0.2-8-2.2c3.1-2.1,6.4-2.8,10-2.2
		C122.7,333.9,122.7,341.3,122.7,348.6z"/>
</g>
<path class="st0" d="M11.1,201.6"/>
</svg>
